# xmcd
#
# Track frame offsets: 
#        183
#        19933
#        36980
#        56363
#        83770
#        103890
#        130525
#        158895
#        176980
#        196043
#        221568
#
# Disc length: 3180 seconds
#
# Revision: 0
# Processed by: cddbd v1.4PL0 Copyright (c) Steve Scherf et al.
# Submitted via: ExactAudioCopy v0.95a4
#
DISCID=910c6a0b
DTITLE=Nick Cave and The Bad Seeds - Songs From a Diary (Live In Europe 
DTITLE='92) - Bootleg
DYEAR=1992
DGENRE=Dark
TTITLE0=The Mercy Seat
TTITLE1=Jack The Ripper
TTITLE2=The Ship Song
TTITLE3=Tupelo
TTITLE4=The Good Son
TTITLE5=The Carny
TTITLE6=Papa Won't Leave You, Henry
TTITLE7=The Weeping Song
TTITLE8=In The Ghetto
TTITLE9=From Her To Eternity
TTITLE10=New Morning
EXTD=
EXTT0=
EXTT1=
EXTT2=
EXTT3=
EXTT4=
EXTT5=
EXTT6=
EXTT7=
EXTT8=
EXTT9=
EXTT10=
PLAYORDER=
